<svg xmlns="http://www.w3.org/2000/svg" fill="none" viewBox="0 0 457 199" height="199" width="457">
<g clip-path="url(#clip0_1_73)">
<path fill="#F1F1F1" d="M0 0H25.03L69.21 49.55V0H88.06V70.93H64.45L18.95 20.06V70.93H0V0Z"></path>
<path fill="#F1F1F1" d="M115.61 70.93C109.06 70.93 104.02 69.16 100.51 65.61C97 62.06 95.24 57.01 95.24 50.46V20.47C95.24 13.92 97 8.87 100.51 5.32C104.02 1.77 109.05 0 115.61 0H163.54C170.09 0 175.14 1.77 178.69 5.32C182.24 8.87 184.01 13.92 184.01 20.47V50.46C184.01 57.01 182.24 62.06 178.69 65.61C175.14 69.16 170.09 70.93 163.54 70.93H115.61ZM156.55 51.98C159.86 51.98 162.11 51.25 163.29 49.8C164.47 48.35 165.06 46.47 165.06 44.18V26.25C165.06 24.16 164.52 22.42 163.44 21.03C162.36 19.65 160.23 18.95 157.06 18.95H123.32C119.74 18.95 117.32 19.73 116.07 21.28C114.82 22.83 114.2 24.83 114.2 27.26V44.38C114.2 46.61 114.79 48.43 115.97 49.85C117.15 51.27 119.33 51.98 122.51 51.98H156.56H156.55Z"></path>
<path fill="#F1F1F1" d="M210.05 70.93H191.1V0H253.62C261.32 0 266.89 1.49 270.34 4.46C273.78 7.43 275.51 12.26 275.51 18.95V27.46C275.51 34.55 273.79 39.65 270.34 42.76C267.57 45.26 263.15 46.75 257.07 47.22L273.28 70.93H250.28L234.27 47.42H210.05V70.93ZM256.46 23.1C256.46 21.88 256.09 20.91 255.35 20.16C254.61 19.42 253.32 19.04 251.5 19.04H210.06V28.46H251.6C253.36 28.46 254.61 28.14 255.35 27.5C256.09 26.86 256.46 25.93 256.46 24.71V23.09V23.1Z"></path>
<path fill="#F1F1F1" d="M331.95 70.93H313V19.05H280.78V0H364.17V19.05H331.95V70.93Z"></path>
<path fill="#F1F1F1" d="M371.26 0H390.31V24.93H437.63V0H456.68V70.93H437.63V43.88H390.31V70.93H371.26V0Z"></path>
<path fill="#F1F1F1" d="M338.25 162.21H335.45V154.55H330.69V151.74H343.01V154.55H338.25V162.21Z"></path>
<path fill="#F1F1F1" d="M354.77 151.72H359.17V162.23H356.36V154.79L352.89 162.21H350.05L346.61 154.79V162.23H343.8V151.74H348.25L351.5 158.4L354.79 151.73L354.77 151.72Z"></path>
<path fill="#F1F1F1" d="M130.21 91.3H111.26V147.69H130.21V91.3Z"></path>
<path fill="#FFE600" d="M130.21 152.09H111.26V153.4H130.21V152.09Z"></path>
<path fill="#F1F1F1" d="M130.21 157.82H111.26V162.23H130.21V157.82Z"></path>
<path fill="#F1F1F1" d="M316.34 147.68C317.13 145 317.55 141.99 317.55 138.61V114.9C317.55 107.34 315.56 101.51 311.57 97.42C307.58 93.33 301.71 91.29 293.94 91.29H232.54V147.68H316.34ZM251.49 110.24H286.75C291.28 110.24 294.37 111.14 296.02 112.92C297.67 114.71 298.5 117.02 298.5 119.86V133.64C298.5 136.48 297.67 138.79 296.02 140.58C294.36 142.37 291.27 143.26 286.75 143.26H251.49V110.23V110.24Z"></path>
<path fill="#F1F1F1" d="M232.54 157.82V162.23H293.94C300.51 162.23 305.72 160.75 309.58 157.82H232.53H232.54Z"></path>
<path fill="#FFE600" d="M232.54 152.09V153.4H312.72C313.71 153 314.55 152.57 315.23 152.09H232.54Z"></path>
<path fill="#FFE600" d="M225.35 152.09H191.45L195.08 153.41H225.35V152.09Z"></path>
<path fill="#F1F1F1" d="M156.25 147.68V111.36L188.74 147.68H225.35V91.3H206.5V140.85L162.33 91.3H137.3V147.68H156.25Z"></path>
<path fill="#FFE600" d="M156.25 152.09H137.3V153.4H156.25V152.09Z"></path>
<path fill="#F1F1F1" d="M156.25 157.82H137.3V162.23H156.25V157.82Z"></path>
<path fill="#F1F1F1" d="M197.8 157.82L201.74 162.23H225.35V157.82H197.8Z"></path>
<path fill="#FFE600" d="M66.99 152.09H37.02L38.9 153.41H65.09L66.99 152.09Z"></path>
<path fill="#F1F1F1" d="M19.05 147.68V111.97L35.61 147.68H68.41L85.12 111.97V147.68H104.16V91.19H74.38L52.08 136.39L30.09 91.3H0V147.68H19.05Z"></path>
<path fill="#FFE600" d="M19.05 152.09H0V153.4H19.05V152.09Z"></path>
<path fill="#F1F1F1" d="M40.31 157.82L42.35 162.23H61.61L63.67 157.82H40.31Z"></path>
<path fill="#F1F1F1" d="M104.17 157.82H85.12V162.33H104.17V157.82Z"></path>
<path fill="#FFE600" d="M104.17 152.09H85.12V153.4H104.17V152.09Z"></path>
<path fill="#F1F1F1" d="M19.05 157.82H0V162.33H19.05V157.82Z"></path>
<path fill="#F1F1F1" d="M8.49999 190.56C9.81999 191.19 10.59 192.53 10.59 194.1C10.59 196.41 8.58999 198.22 6.05999 198.22H0.019989V183.51H5.94999C8.40999 183.51 10.22 185.13 10.22 187.29C10.22 188.57 9.56999 189.86 8.50999 190.55L8.49999 190.56ZM5.79999 185.73H2.39999V189.56H5.79999C6.96999 189.56 7.80999 188.73 7.80999 187.65C7.80999 186.57 6.95999 185.74 5.79999 185.74V185.73ZM5.92999 195.91C7.20999 195.91 8.12999 195.04 8.12999 193.83C8.12999 192.62 7.20999 191.75 5.92999 191.75H2.39999V195.91H5.92999Z"></path>
<path fill="#F1F1F1" d="M19.82 192.72V183.51H22.25V192.57C22.25 194.74 23.69 196.17 25.73 196.17C27.77 196.17 29.2 194.74 29.2 192.57V183.51H31.63V192.72C31.63 196.11 29.11 198.5 25.73 198.5C22.35 198.5 19.82 196.11 19.82 192.72Z"></path>
<path fill="#F1F1F1" d="M41.65 183.51H44.06V198.22H41.65V183.51Z"></path>
<path fill="#F1F1F1" d="M62.76 195.97V198.22H54.23V183.51H56.64V195.97H62.75H62.76Z"></path>
<path fill="#F1F1F1" d="M79.22 185.76H74.91V198.22H72.5V185.76H68.19V183.51H79.23V185.76H79.22Z"></path>
<path fill="#F1F1F1" d="M101.44 185.78V189.94H106.96V192.15H101.44V198.22H99.03V183.51H107.51V185.78H101.44Z"></path>
<path fill="#F1F1F1" d="M123.2 198.49C118.73 198.49 115.44 195.22 115.44 190.86C115.44 186.5 118.73 183.23 123.2 183.23C127.67 183.23 130.95 186.5 130.95 190.86C130.95 195.22 127.66 198.49 123.2 198.49ZM128.49 190.87C128.49 187.83 126.23 185.56 123.2 185.56C120.17 185.56 117.9 187.85 117.9 190.87C117.9 193.89 120.17 196.18 123.2 196.18C126.23 196.18 128.49 193.91 128.49 190.87Z"></path>
<path fill="#F1F1F1" d="M145.37 192.78H142.58V198.22H140.17V183.51H145.89C148.72 183.51 150.83 185.45 150.83 188.16C150.83 190.17 149.64 191.76 147.84 192.43L151.24 198.21H148.53L145.37 192.77V192.78ZM142.58 190.52H145.75C147.35 190.52 148.38 189.53 148.38 188.15C148.38 186.77 147.35 185.78 145.75 185.78H142.58V190.52Z"></path>
<path fill="#F1F1F1" d="M180.94 185.76H176.63V198.22H174.22V185.76H169.91V183.51H180.95V185.76H180.94Z"></path>
<path fill="#F1F1F1" d="M201.24 183.51V198.22H198.83V191.8H192.1V198.22H189.69V183.51H192.1V189.52H198.83V183.51H201.24Z"></path>
<path fill="#F1F1F1" d="M220.18 195.94V198.22H211.41V183.51H219.95V185.77H213.82V189.61H219.4V191.82H213.82V195.93H220.18V195.94Z"></path>
<path fill="#F1F1F1" d="M247.87 198.48C243.52 198.48 240.31 195.26 240.31 190.87C240.31 186.48 243.52 183.25 247.87 183.25C251.35 183.25 254.14 185.42 254.91 188.73H252.47C251.77 186.77 250.05 185.59 247.87 185.59C244.92 185.59 242.76 187.81 242.76 190.88C242.76 193.95 244.92 196.15 247.87 196.15C250.12 196.15 251.85 194.88 252.52 192.8H254.97C254.21 196.26 251.42 198.49 247.87 198.49V198.48Z"></path>
<path fill="#F1F1F1" d="M270.76 198.49C266.29 198.49 263 195.22 263 190.86C263 186.5 266.29 183.23 270.76 183.23C275.23 183.23 278.51 186.5 278.51 190.86C278.51 195.22 275.22 198.49 270.76 198.49ZM276.05 190.87C276.05 187.83 273.79 185.56 270.76 185.56C267.73 185.56 265.46 187.85 265.46 190.87C265.46 193.89 267.73 196.18 270.76 196.18C273.79 196.18 276.05 193.91 276.05 190.87Z"></path>
<path fill="#F1F1F1" d="M296.25 195.97V198.22H287.72V183.51H290.13V195.97H296.24H296.25Z"></path>
<path fill="#F1F1F1" d="M317.64 190.86C317.64 195.12 314.5 198.22 310.18 198.22H304.99V183.51H310.18C314.51 183.51 317.64 186.6 317.64 190.86ZM315.17 190.86C315.17 187.89 313.08 185.76 310.11 185.76H307.41V195.96H310.11C313.08 195.96 315.17 193.81 315.17 190.85V190.86Z"></path>
</g>
<defs>
<clipPath id="clip0_1_73">
<rect fill="white" height="198.5" width="456.68"></rect>
</clipPath>
</defs>
</svg>
